<svg width="55" height="55" viewBox="0 0 55 55" fill="none" xmlns="http://www.w3.org/2000/svg">
<path d="M48.6727 27.5945C49.6352 27.5945 50.4167 28.3608 50.4167 29.3069C50.4167 30.2507 49.6352 31.0147 48.6727 31.0147H46.239V39.1721C46.239 44.1115 42.1438 48.125 37.1113 48.125H33.4606C32.4958 48.125 31.7144 47.3587 31.7144 46.4126C31.7144 45.4688 32.4958 44.7025 33.4606 44.7025H37.1113C40.221 44.7025 42.751 42.2238 42.751 39.1721V31.0147H36.74V33.2867C36.7629 36.1294 34.4369 38.453 31.5379 38.48H18.8787C15.9821 38.453 13.656 36.1294 13.679 33.2867V31.0147H7.66792V39.1811C7.66792 42.2216 10.191 44.6958 13.2917 44.7003L17.0225 44.7025C17.985 44.7025 18.7665 45.4688 18.7665 46.4126C18.7642 47.3587 17.985 48.125 17.0202 48.125L13.2871 48.1228C8.26604 48.1183 4.17771 44.107 4.17771 39.1811V31.0147H1.74625C0.78375 31.0147 0 30.2507 0 29.3069C0 28.3608 0.78375 27.5945 1.74625 27.5945H48.6727ZM31.5391 15.4519C32.9255 15.4519 34.257 15.998 35.2264 16.971C36.2026 17.9531 36.7434 19.2722 36.7412 20.6452V23.4992C36.7297 23.834 36.457 24.1059 36.1155 24.1149H14.2989C13.9597 24.1037 13.687 23.8318 13.6799 23.4992V20.6452C13.6549 17.8025 15.9832 15.4811 18.8799 15.4519H31.5391ZM37.1103 6.87567C42.1451 6.87567 46.238 10.8892 46.238 15.8263V20.0803C46.238 21.0241 45.4589 21.7927 44.4941 21.7927C43.5316 21.7927 42.7501 21.0241 42.7501 20.0803V15.8263C42.7501 12.7768 40.2201 10.2959 37.1103 10.2959H33.4597C32.4972 10.2959 31.7157 9.53188 31.7157 8.58805C31.7157 7.64197 32.4972 6.87567 33.4597 6.87567H37.1103ZM17.0218 6.875C17.9843 6.875 18.7658 7.6413 18.7658 8.58737C18.7658 9.5312 17.9866 10.2975 17.0218 10.2975L13.2887 10.2997C10.1904 10.3042 7.66952 12.7784 7.66952 15.8189V20.0796C7.66952 21.0234 6.88577 21.792 5.92327 21.792C4.96077 21.792 4.17931 21.0234 4.17931 20.0796V15.8189C4.17931 10.893 8.26535 6.88174 13.2864 6.87725L17.0218 6.875Z" fill="white"/>
</svg>
